<svg width="191" height="107" viewBox="0 0 191 107" fill="none" xmlns="http://www.w3.org/2000/svg">
<path d="M132.5 91C135.092 67.4339 132.5 113.917 132.5 91C142 96.5 175 56.3917 175 73.9583C175 85.3775 181.398 58.1611 165.958 58.1611L95 25.75L35.168 64.6373C19.728 64.6373 138 107.919 138 96.5C138 79.9511 150.326 57.4926 165.958 58.1611C164.622 33.2046 105.628 91 132.5 91ZM95 0C62.952 0 44.696 18.5842 43 41.961C22.44 44.7004 -1 57.9715 -1 73.9583C-1 91.9272 18.704 106.5 43 106.5H147C171.296 106.5 191 91.9272 191 73.9583C191 57.9715 175.392 44.7004 154.832 41.961C153.136 18.5842 127.048 0 95 0Z" fill="white"/>
</svg>
