<svg width="650" height="117" xmlns="http://www.w3.org/2000/svg" xmlns:xlink="http://www.w3.org/1999/xlink" overflow="hidden"><defs><clipPath id="clip0"><path d="M315 244 965 244 965 361 315 361Z" fill-rule="evenodd" clip-rule="evenodd"/></clipPath><clipPath id="clip1"><path d="M316 245 964 245 964 360 316 360Z" fill-rule="evenodd" clip-rule="evenodd"/></clipPath><clipPath id="clip2"><path d="M316 245 964 245 964 360 316 360Z" fill-rule="evenodd" clip-rule="evenodd"/></clipPath><clipPath id="clip3"><path d="M316 108 964 108 964 613 316 613Z" fill-rule="evenodd" clip-rule="evenodd"/></clipPath></defs><g clip-path="url(#clip0)" transform="translate(-315 -244)"><g clip-path="url(#clip1)"><g clip-path="url(#clip2)"><g clip-path="url(#clip3)"><path d="M453.9 169.9C449.9 169.7 446.1 169 442.1 168.9 438.8 168.9 435.3 169.3 432.2 170.5 421.4 174.7 410.7 179.1 400.1 183.8 392.3 187.3 384.8 191.3 377.1 195.2 370.7 198.4 364.4 200.3 357.5 196.4 355.4 195.2 353.2 195.6 351.6 198 349.8 200.6 348.1 203.5 344 201.5 343.6 201.3 341.8 202.5 341.9 202.8 342.1 204 342.5 205.4 343.4 206.2 352.4 213.7 363.2 217.5 374.2 220.8 377.6 221.8 380.9 223.2 384.5 224.5 381.8 230 386.9 234.1 386.8 239.9 383.3 236.9 380.3 234.1 377 231.6 375.3 230.3 373.3 229.4 371.4 228.7 366.5 226.9 361.4 225.5 356.4 223.7 350.8 221.6 345.4 218.3 339 219.6 338.4 219.7 337.6 219.1 337 218.6 332.8 215.4 328.7 212.1 324.5 208.9 323.1 207.8 321.6 207 319.8 205.8 319.3 210.9 322.6 213.3 325 216.1 327.9 219.4 330.5 223 333.8 225.8 338.4 229.8 343.5 233.3 348.4 237.1 350.9 239.1 353.3 241.2 355.8 243.2 355.7 243.5 355.5 243.9 355.4 244.2 354.4 244.1 353.2 244.3 352.4 243.9 340.6 238.4 328.8 232.8 317 227.2 315.5 226.5 315 225.4 315.1 223.5 315.3 220.2 314.6 218.3 312.1 215.9 311.6 215.4 311.1 214.9 310.4 214.6 308.9 213.9 306.9 214.7 306.2 216.2 306.9 214.7 307.3 213 307.1 211.4 305.6 210.3 303.4 210.5 302.1 211.7 301.2 212.5 300.6 213.8 299.5 214.1 298.7 214.3 297.8 213.9 296.9 213.9 294.8 213.9 293.6 216.1 292.2 217.7 290.6 219.5 288.3 220.8 285.9 221.1 287.6 218.5 288.9 215.7 289.9 212.8 290.4 211.1 290.9 209.3 290.4 207.6 290 205.9 288.4 204.4 286.6 204.6 286 204.7 285.5 204.9 284.9 204.6 284.2 204.3 284.1 203.2 284.4 202.5 284.7 201.8 285.4 201.3 286 200.6 288.2 197.9 287.3 193.9 286.3 190.6 282.7 190.8 278.3 192.5 274.8 193.4 272.8 193.9 272.1 193.1 271.7 191.5 271.2 189.2 271 186.8 270.4 184.5 270 183 269.5 181.4 268.6 180.3 267.6 179.1 266.3 178.8 265 180.5 262.1 184.2 259 187.9 255.8 191.4 255.1 192.2 253.4 192.7 252.5 192.4 248.8 191.2 245 189.8 241.5 188 238.2 186.4 235 186.1 231.4 187.1 230.3 187.4 228.9 186.5 227.6 186.2 230.4 178.8 239.3 179.6 242.7 173.2 240.8 171.7 238.9 170.2 236.9 168.8 234.8 167.3 233.7 165.6 233.8 162.7 234.1 155.7 233.5 155.1 226.7 155.8 219.4 156.5 211.9 157 205 159 198.1 161 186.6 165.7 182 171.4 180.2 173.6 178.9 176.3 176.6 177.8 175.1 178.8 173.2 179.2 171.5 179.8 166 181.8 161.4 186 159 191.3 158.4 192.7 157.8 194.2 156.4 194.8 155.4 195.2 154.3 195 153.2 195 148.9 194.9 145.2 197.9 141.6 200.3 125.9 210.7 108.1 207.3 91.3 212.8 96.8 215.1 101.3 217.3 105.9 218.9 108.9 220 112.3 220 115.4 221 118.7 222.1 121.7 223.9 124.8 226.2 121.2 226.6 117.7 227 114.1 227.2 110.4 227.5 107.1 228.6 104.3 231.2 103.7 231.8 102.3 232.2 101.6 231.9 95.2 229.2 85.5 223.5 78.4 225 79.7 224.7 81 224.2 82.1 223.4 73.6 220.6 64.6 219.4 55.7 219.9 57.6 218.7 59.4 217.6 61.3 216.4 61.7 216.2 62.1 215.9 62.2 215.5 62.6 214.4 61 213.7 60 213.1 58.6 212.4 57.7 210.9 56.6 209.8 49.5 202.8 35.8 220.3 31.9 225 31.3 225.7 30.7 226.5 30.5 227.5 30.3 228.4 30.7 229.6 31.6 229.9 23 228.5 13.8 230.5 6.7 235.5 7.3 231.9 11 229.9 14 227.9 17 225.9 19.6 223.5 21.9 220.8 23.5 218.9 25 216.7 27.2 215.4 28.6 214.6 30.2 214.1 31.6 213.5 40.6 209.7 50.6 192.4 61.6 198 68.1 201.3 74.5 205 81.4 207.2 85.6 208.5 90.6 207.7 95.1 207.4 106.1 206.5 114.7 200 123.8 194.8 125.9 193.6 128.4 193 130.7 192.1 152.3 183.4 172.3 171.6 191.9 159.3 196.7 156.3 201.9 155.7 207.6 155.3 213.3 154.9 219.5 155.2 224.7 151.7 227.2 150 230.1 148.8 232.7 147.3 236.1 145.3 239.5 145 242.9 147.3 250.1 152.3 257.2 157.4 264.5 162.4 269.4 165.8 274.5 168.6 280.9 168.7 288.4 168.9 295.6 170 301.3 176 303.2 178 306.9 178.4 309.8 179.5 310.6 179.8 311.6 179.9 312.3 180.4 316.5 183.3 320.6 186.5 324.8 189.3 326.4 190.4 328.2 191 330 191.7 332.4 192.6 334.9 193.6 337.4 193.9 340.1 194.2 343 194.1 345.5 193.2 349.8 191.7 354 190.3 358.6 191.8 359.6 192.1 360.8 191.6 361.9 191.7 363.2 191.7 364.7 191.6 365.6 192.2 367.7 193.6 369.8 193.6 371.6 192.2 381.1 185 392.4 182.3 403.3 178.5 409.9 176.2 416.1 173.1 422.6 170.5 428 168.3 433.5 166.3 438.9 164 442 162.7 444.7 160.6 447.7 159.2 449.9 158.2 452.4 156.9 454.7 157 456.9 157.1 460 158.3 460.9 159.9 463.6 164.9 467.7 168.1 472.7 170.1 480.3 173.1 486.7 177.6 492 183.9 492.6 184.7 493.4 185.4 494.3 185.9 502.5 190.4 510.7 195 518.9 199.5 525.5 203.1 532.5 208.8 540.3 205.8 544.1 204.3 547.3 201.6 550.4 199 551.8 197.8 553.4 196.7 555.2 196.7 556.7 196.7 558.1 197.5 559.4 198.3 573.8 207.2 588.3 218.5 604.1 224.6 608 226.1 610.9 228.1 613.3 231.9 615.5 235.4 619.1 238.1 622.5 240.6 629.1 245.4 636.1 249.8 642.8 254.5 644 255.4 644.5 257.3 645.7 259.5 644 259.3 643 259.4 642.6 259 637.4 254.7 608.7 233.3 603.2 241.3 604.6 239.3 606 236.8 604.8 234.7 604 233.2 602.1 232.6 600.5 232.7 598.8 232.8 597.3 233.6 595.8 234.4 594.1 235.3 592.3 236.2 590.6 237 591.2 235.8 591.8 234.6 591.8 233.3 591.8 232 591 230.6 589.7 230.4 589.9 229.2 590.1 228 590.3 226.9 588.7 227.4 587.1 227.8 585.6 228.3 583.9 228.8 567.1 235.2 566.9 232.8 566.7 230.8 569.9 230.3 570.6 228.5 570.8 227.9 570.7 227.2 570.9 226.6 571.2 225.4 572.2 224.5 573.3 223.7 574.3 223 575.5 222.2 576 221.1 576.9 219.3 575.3 217.4 573.7 216.7 575.3 210.1 557.9 214 554.6 215 547.7 217.1 540.6 216.4 533.9 213.3 529.8 211.3 526 211.6 522.2 214.1 519 216.2 515.4 218.1 511.9 219.6 508.3 221.2 504.9 220.5 501.5 218.4 496.4 215.3 491.6 217.2 486.7 220.3 488.7 226.6 489 233.6 494.9 238.2 495.6 238.7 495.9 240 495.9 240.9 496.3 247.3 499.5 252.1 504.4 256 506.1 257.3 506.8 258.8 505.1 261 500.1 258.2 472.5 238 467.3 247.6 470.4 241.9 465.6 235.2 465.5 228.7 465.5 226.4 466 224.2 466.6 222 462.3 220 457.3 223.3 454.4 227 453.8 227.8 452.8 228.7 451.9 228.3 450.3 227.6 451.9 225.3 452.6 223.7 454.5 219.3 446.8 214.7 449 210.4 449.6 209.2 450.9 208.4 451.3 207.2 451.6 206.4 451.5 205.6 451.5 204.7 451.8 199.6 456.6 196.2 460.9 193.4 456.6 196.1 449.7 196.1 444.9 195.5 446 195.3 446.5 194 446.5 192.9 446.5 191.8 446.4 190.6 447 189.7 448.2 188.1 451.1 189 452.6 187.6 453.4 186.9 453.5 185.7 454 184.8 456.1 181 462.6 182.1 464.8 178.4 462.1 178 459.8 175.8 459.5 173.1 459.4 172.3 459.4 171.4 458.9 170.9 458.4 170.3 457.5 170.3 456.7 170.3 455.6 170 454.8 169.9 453.9 169.9Z" transform="matrix(1 0 -0 1.00002 316 108.081)"/></g></g></g></g></svg>